<svg xmlns="http://www.w3.org/2000/svg" viewBox="0 0 2908.9 595.1" enable-background="new 0 0 2908.9 595.1"><path d="M2730.9 185.4c-111.6 0-182.9 82.6-182.9 206.5 0 124.6 70.2 203.1 186.2 203.1 90.5 0 158.8-51.4 170.1-123.5h-76.9c-10.8 34.5-45 57.8-91.2 57.8-65 0-106.3-45.4-106.3-114.1v-4.9h279v-27.8c0-119.7-68.4-197.1-178-197.1zm-100.7 168.2c4.1-59.7 43.9-102.9 100.6-102.9s95 42.4 96.9 102.9h-197.5zM2476.5 587.5v-541.8h-81.5v212.5h-1.5c-22.1-43.6-67.2-72.1-123.9-72.1-99.1 0-165.2 79.2-165.2 203.9s66 204.3 165.9 204.3c57.5 0 102.5-28.9 125.8-74h1.5v67.2h78.9zm-184.8-61.9c-64.2 0-104.4-52.2-104.4-135.6 0-83 40.2-135.6 104.4-135.6 62.3 0 104 53.7 104 135.6 0 82.7-41.7 135.6-104 135.6zM1848.5 358.4c-93.9 5.3-146.8 47.7-146.8 116.8 0 71 54.1 119.1 131.4 118.9 51.9 0 101.8-27.8 124.7-71.7h1.9v65h77.7v-272.2c0-79.2-61.2-129.9-157-129.9-97.7 0-158.5 52.6-163 123.9h76.6c7.2-35.3 36.5-57.8 83.4-57.8 49.5 0 79.2 26.3 79.2 70.2v30.4l-108.1 6.4zm108.1 81.2c0 51.4-44.3 90.4-101 90.5-43.6 0-72.1-22.6-72.1-57.1 0-33.8 27.4-55.2 75.8-58.6l97.3-6v31.2zM1653.3 328.6c-7.1-77.8-69-143.1-170.8-143.1-112.3 0-185.9 79.2-185.9 204.6 0 127.6 73.6 205 186.6 205 95 0 162.2-57.1 170.8-141.2h-78.1c-9.4 45.8-42.1 73.2-92 73.2-63.1 0-104.8-50.4-104.8-137.1 0-84.9 41.3-137.1 104-137.1 52.9 0 84.4 33.4 92.7 75.5v.2h77.5zM1072.5 192.5v395.1h81.1v-236.6c0-56 32.3-90.9 84.5-90.9 15.7 0 30 1.9 36.4 4.5v-75.5c-6-1.1-16.2-3-27.8-3-46.6 0-81.9 27.4-95 73.6h-1.9v-67.2h-77.3zM877.8 441.1l49.6 146.4h89l-195.6-541.8h-90.9l-195.7 541.8h87.5l49.6-146.4h206.5zm-104.4-305.3h2.3l80.7 237.7h-163.7l80.7-237.7zM250.6 140.2c-.4-3.6-.7-7.3-.7-11.2 0-28.5 12.4-59 34.4-83.9 11-12.6 25-23.1 42-31.5 16.9-8.3 32.9-12.8 48-13.6.5 3.9.7 7.8.7 11.8 0 29.7-10.8 57.4-32.5 83.1-26.1 30.5-57.6 48.1-91.9 45.3zm-97.6 1.9c-26.2.4-50.6 7.2-73.1 20.6-22.6 13.4-40.6 31.6-54.1 54.7-17.2 28.7-25.8 63-25.8 102.8 0 34.7 6.4 70.6 19.2 107.7 11.9 34.3 27.1 64.4 45.5 90.3 17.2 24.2 31.5 41.4 43 51.4 17.9 16.7 35.9 24.7 54 23.9 11.9-.4 27.4-4.5 46.7-12.3 19.2-7.8 37.2-11.6 54-11.6 16 0 33.5 3.8 52.5 11.6 19 7.9 35.3 11.7 48.8 11.7 18.8-.5 36.4-8.2 52.8-23.3 10.6-9.2 24.3-25.8 41.1-49.7 12.3-17.6 22.9-36.7 31.9-57.4 3.7-8.8 7.2-18 10.4-27.3-15.2-6.4-28.9-15.4-41.1-27-27-25-40.7-56.5-41.1-94.4-.5-48.6 21.6-86.5 66.3-113.6-24.9-35.5-62.5-55.2-112.4-59.2-18.4-1.6-40.9 2.4-67.6 12-28.2 10.3-44.8 15.5-49.7 15.5-6.5 0-21.5-4.5-44.8-13.2-23.3-8.8-42.2-13.2-56.5-13.2z"/></svg>