<svg id="svg2" xmlns="http://www.w3.org/2000/svg" width="770.29" height="237.42" viewBox="0 0 770.29 237.42"><path id="path4" d="M195.8,185A128.14,128.14,0,0,1,183,208c-6.7,9.6-12.2,16.2-16.4,19.9-6.6,6-13.6,9.1-21.1,9.3-5.4,0-11.9-1.5-19.5-4.7a55.88,55.88,0,0,0-21-4.6,57.93,57.93,0,0,0-21.6,4.6c-7.7,3.1-13.9,4.7-18.7,4.9q-10.8.45-21.6-9.6c-4.6-4-10.3-10.9-17.2-20.6A143.66,143.66,0,0,1,7.7,171.1C2.6,156.3,0,142,0,128.1,0,112.2,3.4,98.5,10.3,87A61.27,61.27,0,0,1,31.9,65.1a57.77,57.77,0,0,1,29.2-8.3c5.7,0,13.3,1.8,22.6,5.3s15.3,5.3,17.9,5.3c2,0,8.6-2.1,19.9-6.2q16-5.7,27-4.8,30,2.4,45,23.7c-17.9,10.8-26.7,26-26.5,45.4q.3,22.8,16.5,37.8a56.91,56.91,0,0,0,16.4,10.8c-1.2,3.8-2.6,7.4-4.1,10.9ZM150,4.8c0,11.9-4.3,23-13,33.2-10.4,12.2-23.1,19.2-36.7,18.1a31.86,31.86,0,0,1-.3-4.5c0-11.4,5-23.6,13.8-33.6A51.54,51.54,0,0,1,130.6,5.4,50,50,0,0,1,149.8,0c.1,1.6.2,3.2.2,4.8Z"/><path d="M457.26,128.08c0,67.24-38.67,109.13-100.19,109.13-61.67,0-100.34-41.89-100.34-109.13S295.4,18.81,357.07,18.81C418.59,18.81,457.26,60.85,457.26,128.08Zm-161.86,0c0,47,23.87,76.91,61.67,76.91,37.64,0,61.67-29.88,61.67-76.91S394.71,51,357.07,51C319.27,51,295.4,80.92,295.4,128.08Z"/><path d="M474,78.43h35v26.66h.73c8.35-18.46,24.9-29.59,48.78-29.59,34.28,0,53.76,22,53.76,57.86V233.7H575.84v-93c0-22-10.26-34.28-31.06-34.28s-34.28,15.09-34.28,37.36V233.7H474Z"/><path d="M768.83,187.26c-4.69,29.3-31.94,49.52-68.71,49.52-46.58,0-74.7-30.62-74.7-80.13,0-49.07,28.41-81.45,73.24-81.45,44.09,0,71.63,30.62,71.63,77.79v11.86H661.75v2.2c0,24.9,15.23,41.6,39.11,41.6,17,0,29.88-8.5,33.83-21.39ZM662,140.83h72.51c-.73-22-14.8-37.35-35.74-37.35C678.3,103.48,663.5,119.15,662,140.83Z"/></svg>
