<?xml version="1.0" encoding="utf-8"?>
<!-- Generator: Adobe Illustrator 23.0.2, SVG Export Plug-In . SVG Version: 6.00 Build 0)  -->
<svg version="1.1"
	 id="svg2" xmlns:cc="http://creativecommons.org/ns#" xmlns:dc="http://purl.org/dc/elements/1.1/" xmlns:inkscape="http://www.inkscape.org/namespaces/inkscape" xmlns:rdf="http://www.w3.org/1999/02/22-rdf-syntax-ns#" xmlns:sodipodi="http://sodipodi.sourceforge.net/DTD/sodipodi-0.dtd" xmlns:svg="http://www.w3.org/2000/svg"
	 xmlns="http://www.w3.org/2000/svg" xmlns:xlink="http://www.w3.org/1999/xlink" x="0px" y="0px" viewBox="0 0 2359.6 593.6"
	 style="enable-background:new 0 0 2359.6 593.6;" xml:space="preserve">
<style type="text/css">
	.st0{fill:none;}
</style>
<g>
	<path class="st0" d="M1264.9,245c-57.1,0-97.2,43.5-101.3,103.6h198.8C1360.5,287.8,1322,245,1264.9,245z"/>
	<path d="M2247.4,361.1l-64.6-14.7c-43.1-9.8-61.2-26.9-61.2-51.8c0-31.8,29.5-53.3,73.7-53.3c45.7,0,74.1,24.2,78.6,62.7h76.7
		c-2.6-73.3-62.7-124.7-155.3-124.7c-91.5,0-153.4,48.7-153.5,119.9c0,57.8,37.4,94.1,113,111.5l64.6,15.1
		c43.5,9.8,58.2,24.9,58.2,50.6c0,32.5-30.3,52.9-79.4,52.9c-49.9,0-78.2-20.4-85.8-62h-80.9c7.6,75.5,67.3,124.3,166.7,124.3
		c93.8,0,161.4-49.8,161.4-122.4C2359.6,411.7,2328.7,380,2247.4,361.1z"/>
	<polygon points="1736.1,286.2 1738,286.2 1821.6,584 1906.6,584 2015.4,186.4 1934.5,186.4 1861.9,499.3 1860,499.3 1776.9,186.4 
		1698.3,186.4 1615.5,499.3 1614,499.3 1541.4,186.4 1459.8,186.4 1569,584 1653.3,584 	"/>
	<path d="M1443.9,405.6v-28c0-120.5-68.7-198.4-179.1-198.4c-112.3,0-184.1,83.2-184.1,207.9c0,125.5,70.7,204.5,187.5,204.5
		c91.1,0,159.9-51.7,171.2-124.3v-0.1h-77.5c-10.9,34.8-45.3,58.2-91.8,58.2c-65.4,0-107-45.7-107-114.9v-4.9H1443.9z M1264.9,245
		c57.1,0,95.6,42.8,97.5,103.6h-198.8C1167.7,288.5,1207.8,245,1264.9,245z"/>
	<polygon points="665.1,182.3 947.8,584.1 1024.1,584.1 1024.1,38.7 941.7,38.7 941.7,440.8 938.7,440.8 656,38.7 579.3,38.7 
		579.3,584 661.7,584 661.7,182.3 	"/>
</g>
<path d="M250.6,140.2c-0.4-3.6-0.7-7.3-0.7-11.2c0-28.5,12.4-59,34.4-83.9c11-12.6,25-23.1,42-31.5c16.9-8.3,32.9-12.8,48-13.6
	c0.5,3.9,0.7,7.8,0.7,11.8c0,29.7-10.8,57.4-32.5,83.1C316.4,125.4,284.9,143,250.6,140.2z M153,142.1c-26.2,0.4-50.6,7.2-73.1,20.6
	c-22.6,13.4-40.6,31.6-54.1,54.7C8.6,246.1,0,280.4,0,320.2c0,34.7,6.4,70.6,19.2,107.7c11.9,34.3,27.1,64.4,45.5,90.3
	c17.2,24.2,31.5,41.4,43,51.4c17.9,16.7,35.9,24.7,54,23.9c11.9-0.4,27.4-4.5,46.7-12.3c19.2-7.8,37.2-11.6,54-11.6
	c16,0,33.5,3.8,52.5,11.6c19,7.9,35.3,11.7,48.8,11.7c18.8-0.5,36.4-8.2,52.8-23.3c10.6-9.2,24.3-25.8,41.1-49.7
	c12.3-17.6,22.9-36.7,31.9-57.4c3.7-8.8,7.2-18,10.4-27.3c-15.2-6.4-28.9-15.4-41.1-27c-27-25-40.7-56.5-41.1-94.4
	c-0.5-48.6,21.6-86.5,66.3-113.6c-24.9-35.5-62.5-55.2-112.4-59.2c-18.4-1.6-40.9,2.4-67.6,12c-28.2,10.3-44.8,15.5-49.7,15.5
	c-6.5,0-21.5-4.5-44.8-13.2C186.2,146.5,167.3,142.1,153,142.1z"/>
</svg>
